{
	"asset":{
		"generator":"Khronos glTF Blender I/O v3.6.28",
		"version":"2.0"
	},
	"extensionsUsed":[
		"KHR_materials_specular",
		"KHR_materials_ior"
	],
	"scene":0,
	"scenes":[
		{
			"name":"Scene",
			"nodes":[
				5
			]
		}
	],
	"nodes":[
		{
			"mesh":0,
			"name":"Circle"
		},
		{
			"mesh":1,
			"name":"Cube.002"
		},
		{
			"mesh":2,
			"name":"Cube.003"
		},
		{
			"mesh":3,
			"name":"Icosphere"
		},
		{
			"mesh":4,
			"name":"Icosphere.016"
		},
		{
			"children":[
				0,
				1,
				2,
				3,
				4
			],
			"name":"Empty"
		}
	],
	"materials":[
		{
			"alphaMode":"BLEND",
			"doubleSided":true,
			"name":"Material.004",
			"normalTexture":{
				"index":0
			},
			"pbrMetallicRoughness":{
				"baseColorTexture":{
					"index":1
				},
				"metallicRoughnessTexture":{
					"index":2
				}
			}
		},
		{
			"doubleSided":true,
			"name":"Material.003",
			"normalTexture":{
				"index":3
			},
			"pbrMetallicRoughness":{
				"baseColorFactor":[
					0.19304727017879486,
					0.107342928647995,
					0.015200601890683174,
					1
				],
				"metallicRoughnessTexture":{
					"index":4
				}
			}
		},
		{
			"doubleSided":true,
			"name":"Material.002",
			"normalTexture":{
				"index":5
			},
			"pbrMetallicRoughness":{
				"baseColorTexture":{
					"index":6
				},
				"metallicFactor":0,
				"metallicRoughnessTexture":{
					"index":7
				}
			}
		},
		{
			"doubleSided":true,
			"extensions":{
				"KHR_materials_specular":{
					"specularColorFactor":[
						0,
						0,
						0
					]
				},
				"KHR_materials_ior":{
					"ior":1.4500000476837158
				}
			},
			"name":"Material.005",
			"pbrMetallicRoughness":{
				"baseColorFactor":[
					0,
					0,
					0,
					1
				],
				"metallicFactor":0
			}
		},
		{
			"doubleSided":true,
			"extensions":{
				"KHR_materials_specular":{
					"specularColorFactor":[
						1.1748999192527965,
						1.1748999192527965,
						1.1748999192527965
					]
				},
				"KHR_materials_ior":{
					"ior":1.4500000476837158
				}
			},
			"name":"Material.001",
			"normalTexture":{
				"index":8
			},
			"pbrMetallicRoughness":{
				"baseColorTexture":{
					"index":9
				},
				"metallicRoughnessTexture":{
					"index":10
				}
			}
		}
	],
	"meshes":[
		{
			"name":"Circle",
			"primitives":[
				{
					"attributes":{
						"POSITION":0,
						"NORMAL":1,
						"TEXCOORD_0":2
					},
					"indices":3,
					"material":0
				}
			]
		},
		{
			"name":"Cube.007",
			"primitives":[
				{
					"attributes":{
						"POSITION":4,
						"NORMAL":5,
						"TEXCOORD_0":6
					},
					"indices":7,
					"material":1
				}
			]
		},
		{
			"name":"Cube.008",
			"primitives":[
				{
					"attributes":{
						"POSITION":8,
						"NORMAL":9,
						"TEXCOORD_0":10
					},
					"indices":11,
					"material":2
				}
			]
		},
		{
			"name":"Icosphere",
			"primitives":[
				{
					"attributes":{
						"POSITION":12,
						"NORMAL":13,
						"TEXCOORD_0":14
					},
					"indices":15,
					"material":3
				}
			]
		},
		{
			"name":"Icosphere.017",
			"primitives":[
				{
					"attributes":{
						"POSITION":16,
						"NORMAL":17,
						"TEXCOORD_0":18
					},
					"indices":19,
					"material":4
				}
			]
		}
	],
	"textures":[
		{
			"sampler":0,
			"source":0
		},
		{
			"sampler":0,
			"source":1
		},
		{
			"sampler":0,
			"source":2
		},
		{
			"sampler":0,
			"source":3
		},
		{
			"sampler":0,
			"source":4
		},
		{
			"sampler":0,
			"source":5
		},
		{
			"sampler":0,
			"source":6
		},
		{
			"sampler":0,
			"source":7
		},
		{
			"sampler":0,
			"source":3
		},
		{
			"sampler":0,
			"source":8
		},
		{
			"sampler":0,
			"source":4
		}
	],
	"images":[
		{
			"mimeType":"image/jpeg",
			"name":"Chainmail004_1K-JPG_NormalGL",
			"uri":"Chainmail004_1K-JPG_NormalGL.jpg"
		},
		{
			"mimeType":"image/png",
			"name":"Chainmail004_1K-JPG_Color-Chainmail004_1K-JPG_Opacity",
			"uri":"Chainmail004_1K-JPG_Color-Chainmail004_1K-JPG_Opacity.png"
		},
		{
			"mimeType":"image/png",
			"name":"Chainmail004_1K-JPG_Roughness",
			"uri":"Chainmail004_1K-JPG_Roughness.png"
		},
		{
			"mimeType":"image/png",
			"name":"worn-shiny-metal-Normal-ogl",
			"uri":"worn-shiny-metal-Normal-ogl.png"
		},
		{
			"mimeType":"image/png",
			"name":"worn-shiny-metal-Roughness",
			"uri":"worn-shiny-metal-Roughness.png"
		},
		{
			"mimeType":"image/png",
			"name":"brown-leather_normal-ogl",
			"uri":"brown-leather_normal-ogl.png"
		},
		{
			"mimeType":"image/png",
			"name":"brown-leather_albedo",
			"uri":"brown-leather_albedo.png"
		},
		{
			"mimeType":"image/png",
			"name":"brown-leather_roughness",
			"uri":"brown-leather_roughness.png"
		},
		{
			"mimeType":"image/png",
			"name":"worn-shiny-metal-albedo",
			"uri":"worn-shiny-metal-albedo.png"
		}
	],
	"accessors":[
		{
			"bufferView":0,
			"componentType":5126,
			"count":231,
			"max":[
				1.7936252355575562,
				-1.1454541683197021,
				1.3466856479644775
			],
			"min":[
				-1.8191399574279785,
				-2.3400676250457764,
				-1.4063634872436523
			],
			"type":"VEC3"
		},
		{
			"bufferView":1,
			"componentType":5126,
			"count":231,
			"type":"VEC3"
		},
		{
			"bufferView":2,
			"componentType":5126,
			"count":231,
			"type":"VEC2"
		},
		{
			"bufferView":3,
			"componentType":5123,
			"count":1152,
			"type":"SCALAR"
		},
		{
			"bufferView":4,
			"componentType":5126,
			"count":15117,
			"max":[
				1.1414074897766113,
				0.5117501020431519,
				1.6231238842010498
			],
			"min":[
				-1.1418347358703613,
				-1.5921541452407837,
				-1.3262561559677124
			],
			"type":"VEC3"
		},
		{
			"bufferView":5,
			"componentType":5126,
			"count":15117,
			"type":"VEC3"
		},
		{
			"bufferView":6,
			"componentType":5126,
			"count":15117,
			"type":"VEC2"
		},
		{
			"bufferView":7,
			"componentType":5123,
			"count":81264,
			"type":"SCALAR"
		},
		{
			"bufferView":8,
			"componentType":5126,
			"count":482,
			"max":[
				1.0740848779678345,
				-0.8321107625961304,
				0.9630287289619446
			],
			"min":[
				-1.0739589929580688,
				-1.6450941562652588,
				-1.3038272857666016
			],
			"type":"VEC3"
		},
		{
			"bufferView":9,
			"componentType":5126,
			"count":482,
			"type":"VEC3"
		},
		{
			"bufferView":10,
			"componentType":5126,
			"count":482,
			"type":"VEC2"
		},
		{
			"bufferView":11,
			"componentType":5123,
			"count":2328,
			"type":"SCALAR"
		},
		{
			"bufferView":12,
			"componentType":5126,
			"count":240,
			"max":[
				0.9883079528808594,
				0.2931058406829834,
				1.475483775138855
			],
			"min":[
				-0.9883079528808594,
				-1.5185033082962036,
				-1.078250765800476
			],
			"type":"VEC3"
		},
		{
			"bufferView":13,
			"componentType":5126,
			"count":240,
			"type":"VEC3"
		},
		{
			"bufferView":14,
			"componentType":5126,
			"count":240,
			"type":"VEC2"
		},
		{
			"bufferView":15,
			"componentType":5123,
			"count":240,
			"type":"SCALAR"
		},
		{
			"bufferView":16,
			"componentType":5126,
			"count":2998,
			"max":[
				1.125983476638794,
				1.090916395187378,
				1.6300456523895264
			],
			"min":[
				-1.125983715057373,
				-1.5291097164154053,
				-1.347834825515747
			],
			"type":"VEC3"
		},
		{
			"bufferView":17,
			"componentType":5126,
			"count":2998,
			"type":"VEC3"
		},
		{
			"bufferView":18,
			"componentType":5126,
			"count":2998,
			"type":"VEC2"
		},
		{
			"bufferView":19,
			"componentType":5123,
			"count":10908,
			"type":"SCALAR"
		}
	],
	"bufferViews":[
		{
			"buffer":0,
			"byteLength":2772,
			"byteOffset":0,
			"target":34962
		},
		{
			"buffer":0,
			"byteLength":2772,
			"byteOffset":2772,
			"target":34962
		},
		{
			"buffer":0,
			"byteLength":1848,
			"byteOffset":5544,
			"target":34962
		},
		{
			"buffer":0,
			"byteLength":2304,
			"byteOffset":7392,
			"target":34963
		},
		{
			"buffer":0,
			"byteLength":181404,
			"byteOffset":9696,
			"target":34962
		},
		{
			"buffer":0,
			"byteLength":181404,
			"byteOffset":191100,
			"target":34962
		},
		{
			"buffer":0,
			"byteLength":120936,
			"byteOffset":372504,
			"target":34962
		},
		{
			"buffer":0,
			"byteLength":162528,
			"byteOffset":493440,
			"target":34963
		},
		{
			"buffer":0,
			"byteLength":5784,
			"byteOffset":655968,
			"target":34962
		},
		{
			"buffer":0,
			"byteLength":5784,
			"byteOffset":661752,
			"target":34962
		},
		{
			"buffer":0,
			"byteLength":3856,
			"byteOffset":667536,
			"target":34962
		},
		{
			"buffer":0,
			"byteLength":4656,
			"byteOffset":671392,
			"target":34963
		},
		{
			"buffer":0,
			"byteLength":2880,
			"byteOffset":676048,
			"target":34962
		},
		{
			"buffer":0,
			"byteLength":2880,
			"byteOffset":678928,
			"target":34962
		},
		{
			"buffer":0,
			"byteLength":1920,
			"byteOffset":681808,
			"target":34962
		},
		{
			"buffer":0,
			"byteLength":480,
			"byteOffset":683728,
			"target":34963
		},
		{
			"buffer":0,
			"byteLength":35976,
			"byteOffset":684208,
			"target":34962
		},
		{
			"buffer":0,
			"byteLength":35976,
			"byteOffset":720184,
			"target":34962
		},
		{
			"buffer":0,
			"byteLength":23984,
			"byteOffset":756160,
			"target":34962
		},
		{
			"buffer":0,
			"byteLength":21816,
			"byteOffset":780144,
			"target":34963
		}
	],
	"samplers":[
		{
			"magFilter":9729,
			"minFilter":9987
		}
	],
	"buffers":[
		{
			"byteLength":801960,
			"uri":"bacinet.bin"
		}
	]
}
