{
	"asset":{
		"generator":"Khronos glTF Blender I/O v3.6.28",
		"version":"2.0"
	},
	"scene":0,
	"scenes":[
		{
			"name":"Scene",
			"nodes":[
				2
			]
		}
	],
	"nodes":[
		{
			"mesh":0,
			"name":"Circle"
		},
		{
			"mesh":1,
			"name":"Circle.001"
		},
		{
			"children":[
				0,
				1
			],
			"name":"Empty"
		}
	],
	"materials":[
		{
			"alphaMode":"BLEND",
			"doubleSided":true,
			"name":"Material.002",
			"normalTexture":{
				"index":0
			},
			"pbrMetallicRoughness":{
				"baseColorTexture":{
					"index":1
				},
				"metallicFactor":0,
				"roughnessFactor":0.5
			}
		},
		{
			"alphaMode":"BLEND",
			"doubleSided":true,
			"name":"Material.003",
			"normalTexture":{
				"index":2
			},
			"pbrMetallicRoughness":{
				"baseColorTexture":{
					"index":3
				},
				"metallicRoughnessTexture":{
					"index":4
				}
			}
		}
	],
	"meshes":[
		{
			"name":"Circle",
			"primitives":[
				{
					"attributes":{
						"POSITION":0,
						"NORMAL":1,
						"TEXCOORD_0":2
					},
					"indices":3,
					"material":0
				}
			]
		},
		{
			"name":"Circle.001",
			"primitives":[
				{
					"attributes":{
						"POSITION":4,
						"NORMAL":5,
						"TEXCOORD_0":6
					},
					"indices":7,
					"material":1
				}
			]
		}
	],
	"textures":[
		{
			"sampler":0,
			"source":0
		},
		{
			"sampler":0,
			"source":1
		},
		{
			"sampler":0,
			"source":2
		},
		{
			"sampler":0,
			"source":3
		},
		{
			"sampler":0,
			"source":4
		}
	],
	"images":[
		{
			"mimeType":"image/jpeg",
			"name":"Atlas-443-A_Normal",
			"uri":"Atlas-443-A_Normal.jpg"
		},
		{
			"mimeType":"image/png",
			"name":"Atlas-443-A_BaseColor-Atlas-443-A_Opacity",
			"uri":"Atlas-443-A_BaseColor-Atlas-443-A_Opacity.png"
		},
		{
			"mimeType":"image/jpeg",
			"name":"Atlas-355-A_Normal",
			"uri":"Atlas-355-A_Normal.jpg"
		},
		{
			"mimeType":"image/png",
			"name":"Atlas-355-A_BaseColor-Atlas-355-A_Opacity",
			"uri":"Atlas-355-A_BaseColor-Atlas-355-A_Opacity.png"
		},
		{
			"mimeType":"image/png",
			"name":"Atlas-355-A_Metallic-Atlas-355-A_Roughness",
			"uri":"Atlas-355-A_Metallic-Atlas-355-A_Roughness.png"
		}
	],
	"accessors":[
		{
			"bufferView":0,
			"componentType":5126,
			"count":15224,
			"max":[
				3.2195370197296143,
				0.9128159284591675,
				3.2647714614868164
			],
			"min":[
				-3.25838303565979,
				-0.17453449964523315,
				-3.0996625423431396
			],
			"type":"VEC3"
		},
		{
			"bufferView":1,
			"componentType":5126,
			"count":15224,
			"type":"VEC3"
		},
		{
			"bufferView":2,
			"componentType":5126,
			"count":15224,
			"type":"VEC2"
		},
		{
			"bufferView":3,
			"componentType":5123,
			"count":22836,
			"type":"SCALAR"
		},
		{
			"bufferView":4,
			"componentType":5126,
			"count":896,
			"max":[
				2.5907609462738037,
				1.235802173614502,
				2.875854969024658
			],
			"min":[
				-2.303074359893799,
				-0.13587790727615356,
				-2.9763832092285156
			],
			"type":"VEC3"
		},
		{
			"bufferView":5,
			"componentType":5126,
			"count":896,
			"type":"VEC3"
		},
		{
			"bufferView":6,
			"componentType":5126,
			"count":896,
			"type":"VEC2"
		},
		{
			"bufferView":7,
			"componentType":5123,
			"count":1344,
			"type":"SCALAR"
		}
	],
	"bufferViews":[
		{
			"buffer":0,
			"byteLength":182688,
			"byteOffset":0,
			"target":34962
		},
		{
			"buffer":0,
			"byteLength":182688,
			"byteOffset":182688,
			"target":34962
		},
		{
			"buffer":0,
			"byteLength":121792,
			"byteOffset":365376,
			"target":34962
		},
		{
			"buffer":0,
			"byteLength":45672,
			"byteOffset":487168,
			"target":34963
		},
		{
			"buffer":0,
			"byteLength":10752,
			"byteOffset":532840,
			"target":34962
		},
		{
			"buffer":0,
			"byteLength":10752,
			"byteOffset":543592,
			"target":34962
		},
		{
			"buffer":0,
			"byteLength":7168,
			"byteOffset":554344,
			"target":34962
		},
		{
			"buffer":0,
			"byteLength":2688,
			"byteOffset":561512,
			"target":34963
		}
	],
	"samplers":[
		{
			"magFilter":9729,
			"minFilter":9987
		}
	],
	"buffers":[
		{
			"byteLength":564200,
			"uri":"grass_blades.bin"
		}
	]
}
