{
	"asset":{
		"generator":"Khronos glTF Blender I/O v3.6.27",
		"version":"2.0"
	},
	"scene":0,
	"scenes":[
		{
			"name":"Scene",
			"nodes":[
				3
			]
		}
	],
	"nodes":[
		{
			"mesh":0,
			"name":"Plane.013"
		},
		{
			"mesh":1,
			"name":"Sphere"
		},
		{
			"mesh":2,
			"name":"Sphere.001"
		},
		{
			"children":[
				0,
				1,
				2
			],
			"name":"Empty"
		}
	],
	"materials":[
		{
			"alphaMode":"BLEND",
			"doubleSided":true,
			"name":"Material.004",
			"normalTexture":{
				"index":0
			},
			"pbrMetallicRoughness":{
				"baseColorTexture":{
					"index":1
				},
				"metallicFactor":0,
				"roughnessFactor":0.6318181753158569
			}
		},
		{
			"doubleSided":true,
			"name":"Material.007",
			"normalTexture":{
				"index":2
			},
			"pbrMetallicRoughness":{
				"metallicFactor":0,
				"metallicRoughnessTexture":{
					"index":3
				}
			}
		},
		{
			"doubleSided":true,
			"name":"Material.008",
			"normalTexture":{
				"index":4
			},
			"pbrMetallicRoughness":{
				"baseColorTexture":{
					"index":5
				},
				"metallicFactor":0,
				"metallicRoughnessTexture":{
					"index":6
				}
			}
		}
	],
	"meshes":[
		{
			"name":"Plane.011",
			"primitives":[
				{
					"attributes":{
						"POSITION":0,
						"NORMAL":1,
						"TEXCOORD_0":2
					},
					"indices":3,
					"material":0
				}
			]
		},
		{
			"name":"Sphere",
			"primitives":[
				{
					"attributes":{
						"COLOR_0":4,
						"POSITION":5,
						"NORMAL":6,
						"TEXCOORD_0":7
					},
					"indices":8,
					"material":1
				}
			]
		},
		{
			"name":"Sphere.001",
			"primitives":[
				{
					"attributes":{
						"POSITION":9,
						"NORMAL":10,
						"TEXCOORD_0":11
					},
					"indices":12,
					"material":2
				}
			]
		}
	],
	"textures":[
		{
			"sampler":0,
			"source":0
		},
		{
			"sampler":0,
			"source":1
		},
		{
			"sampler":0,
			"source":2
		},
		{
			"sampler":0,
			"source":3
		},
		{
			"sampler":0,
			"source":4
		},
		{
			"sampler":0,
			"source":5
		},
		{
			"sampler":0,
			"source":6
		}
	],
	"images":[
		{
			"mimeType":"image/png",
			"name":"helecho_normal",
			"uri":"helecho_normal.dds"
		},
		{
			"mimeType":"image/png",
			"name":"helecho_diffuse",
			"uri":"helecho_diffuse.dds"
		},
		{
			"mimeType":"image/png",
			"name":"rough_n",
			"uri":"rough_n.png"
		},
		{
			"mimeType":"image/png",
			"name":"rough",
			"uri":"rough.png"
		},
		{
			"mimeType":"image/jpeg",
			"name":"Mud_Wet_n",
			"uri":"Mud_Wet_n.jpg"
		},
		{
			"mimeType":"image/jpeg",
			"name":"Mud_Wet",
			"uri":"Mud_Wet.jpg"
		},
		{
			"mimeType":"image/png",
			"name":"Mud_Wet_s",
			"uri":"Mud_Wet_s.png"
		}
	],
	"accessors":[
		{
			"bufferView":0,
			"componentType":5126,
			"count":946,
			"max":[
				0.8450562953948975,
				1.6389296054840088,
				0.9307994842529297
			],
			"min":[
				-0.9324767589569092,
				-0.20973700284957886,
				-1.2162539958953857
			],
			"type":"VEC3"
		},
		{
			"bufferView":1,
			"componentType":5126,
			"count":946,
			"type":"VEC3"
		},
		{
			"bufferView":2,
			"componentType":5126,
			"count":946,
			"type":"VEC2"
		},
		{
			"bufferView":3,
			"componentType":5123,
			"count":1584,
			"type":"SCALAR"
		},
		{
			"bufferView":4,
			"componentType":5123,
			"count":8695,
			"normalized":true,
			"type":"VEC4"
		},
		{
			"bufferView":5,
			"componentType":5126,
			"count":8695,
			"max":[
				0.5012912750244141,
				0.33147382736206055,
				0.60274338722229
			],
			"min":[
				-0.8266115188598633,
				-0.3385428488254547,
				-0.7251596450805664
			],
			"type":"VEC3"
		},
		{
			"bufferView":6,
			"componentType":5126,
			"count":8695,
			"type":"VEC3"
		},
		{
			"bufferView":7,
			"componentType":5126,
			"count":8695,
			"type":"VEC2"
		},
		{
			"bufferView":8,
			"componentType":5123,
			"count":48384,
			"type":"SCALAR"
		},
		{
			"bufferView":9,
			"componentType":5126,
			"count":32,
			"max":[
				0.4761807918548584,
				0.24237143993377686,
				0.5776326656341553
			],
			"min":[
				-0.8015010356903076,
				0.24237143993377686,
				-0.7000491619110107
			],
			"type":"VEC3"
		},
		{
			"bufferView":10,
			"componentType":5126,
			"count":32,
			"type":"VEC3"
		},
		{
			"bufferView":11,
			"componentType":5126,
			"count":32,
			"type":"VEC2"
		},
		{
			"bufferView":12,
			"componentType":5123,
			"count":90,
			"type":"SCALAR"
		}
	],
	"bufferViews":[
		{
			"buffer":0,
			"byteLength":11352,
			"byteOffset":0,
			"target":34962
		},
		{
			"buffer":0,
			"byteLength":11352,
			"byteOffset":11352,
			"target":34962
		},
		{
			"buffer":0,
			"byteLength":7568,
			"byteOffset":22704,
			"target":34962
		},
		{
			"buffer":0,
			"byteLength":3168,
			"byteOffset":30272,
			"target":34963
		},
		{
			"buffer":0,
			"byteLength":69560,
			"byteOffset":33440,
			"target":34962
		},
		{
			"buffer":0,
			"byteLength":104340,
			"byteOffset":103000,
			"target":34962
		},
		{
			"buffer":0,
			"byteLength":104340,
			"byteOffset":207340,
			"target":34962
		},
		{
			"buffer":0,
			"byteLength":69560,
			"byteOffset":311680,
			"target":34962
		},
		{
			"buffer":0,
			"byteLength":96768,
			"byteOffset":381240,
			"target":34963
		},
		{
			"buffer":0,
			"byteLength":384,
			"byteOffset":478008,
			"target":34962
		},
		{
			"buffer":0,
			"byteLength":384,
			"byteOffset":478392,
			"target":34962
		},
		{
			"buffer":0,
			"byteLength":256,
			"byteOffset":478776,
			"target":34962
		},
		{
			"buffer":0,
			"byteLength":180,
			"byteOffset":479032,
			"target":34963
		}
	],
	"samplers":[
		{
			"magFilter":9729,
			"minFilter":9987
		}
	],
	"buffers":[
		{
			"byteLength":479212,
			"uri":"pot.bin"
		}
	]
}
