{
	"asset":{
		"generator":"Khronos glTF Blender I/O v3.6.27",
		"version":"2.0"
	},
	"extensionsUsed":[
		"KHR_materials_specular",
		"KHR_materials_ior"
	],
	"scene":0,
	"scenes":[
		{
			"name":"Scene",
			"nodes":[
				4
			]
		}
	],
	"nodes":[
		{
			"mesh":0,
			"name":"Cube"
		},
		{
			"mesh":1,
			"name":"Cube.001"
		},
		{
			"mesh":2,
			"name":"Cube.012"
		},
		{
			"mesh":3,
			"name":"Cube.017"
		},
		{
			"children":[
				0,
				1,
				2,
				3
			],
			"name":"Empty"
		}
	],
	"materials":[
		{
			"doubleSided":true,
			"extensions":{
				"KHR_materials_specular":{
					"specularColorFactor":[
						0.16168349619844755,
						0.16168349619844755,
						0.16168349619844755
					]
				},
				"KHR_materials_ior":{
					"ior":1.4500000476837158
				}
			},
			"name":"Material.002",
			"normalTexture":{
				"index":0
			},
			"pbrMetallicRoughness":{
				"baseColorTexture":{
					"index":1
				},
				"metallicFactor":0,
				"metallicRoughnessTexture":{
					"index":2
				}
			}
		},
		{
			"doubleSided":true,
			"extensions":{
				"KHR_materials_specular":{
					"specularColorFactor":[
						0.16168349619844755,
						0.16168349619844755,
						0.16168349619844755
					]
				},
				"KHR_materials_ior":{
					"ior":1.4500000476837158
				}
			},
			"name":"Material.003",
			"normalTexture":{
				"index":3
			},
			"pbrMetallicRoughness":{
				"baseColorTexture":{
					"index":4
				},
				"metallicFactor":0,
				"metallicRoughnessTexture":{
					"index":5
				}
			}
		},
		{
			"doubleSided":true,
			"extensions":{
				"KHR_materials_specular":{
					"specularColorFactor":[
						0.16168349619844755,
						0.16168349619844755,
						0.16168349619844755
					]
				},
				"KHR_materials_ior":{
					"ior":1.4500000476837158
				}
			},
			"name":"Material.005",
			"normalTexture":{
				"index":6
			},
			"pbrMetallicRoughness":{
				"baseColorTexture":{
					"index":7
				},
				"metallicRoughnessTexture":{
					"index":8
				}
			}
		},
		{
			"doubleSided":true,
			"name":"Material",
			"normalTexture":{
				"index":9
			},
			"pbrMetallicRoughness":{
				"baseColorTexture":{
					"index":10
				},
				"metallicFactor":0,
				"metallicRoughnessTexture":{
					"index":11
				}
			}
		},
		{
			"doubleSided":true,
			"extensions":{
				"KHR_materials_specular":{
					"specularColorFactor":[
						0.16168349619844755,
						0.16168349619844755,
						0.16168349619844755
					]
				},
				"KHR_materials_ior":{
					"ior":1.4500000476837158
				}
			},
			"name":"Material.001",
			"normalTexture":{
				"index":12
			},
			"pbrMetallicRoughness":{
				"baseColorTexture":{
					"index":13
				},
				"metallicFactor":0,
				"metallicRoughnessTexture":{
					"index":14
				}
			}
		}
	],
	"meshes":[
		{
			"name":"Cube",
			"primitives":[
				{
					"attributes":{
						"POSITION":0,
						"NORMAL":1,
						"TEXCOORD_0":2
					},
					"indices":3,
					"material":0
				},
				{
					"attributes":{
						"POSITION":4,
						"NORMAL":5,
						"TEXCOORD_0":6
					},
					"indices":7,
					"material":1
				}
			]
		},
		{
			"name":"Cube.002",
			"primitives":[
				{
					"attributes":{
						"POSITION":8,
						"NORMAL":9,
						"TEXCOORD_0":10
					},
					"indices":11,
					"material":2
				}
			]
		},
		{
			"name":"Cube.015",
			"primitives":[
				{
					"attributes":{
						"POSITION":12,
						"NORMAL":13,
						"TEXCOORD_0":14
					},
					"indices":15,
					"material":3
				}
			]
		},
		{
			"name":"Cube.011",
			"primitives":[
				{
					"attributes":{
						"POSITION":16,
						"NORMAL":17,
						"TEXCOORD_0":18
					},
					"indices":19,
					"material":4
				}
			]
		}
	],
	"textures":[
		{
			"sampler":0,
			"source":0
		},
		{
			"sampler":0,
			"source":1
		},
		{
			"sampler":0,
			"source":2
		},
		{
			"sampler":0,
			"source":0
		},
		{
			"sampler":0,
			"source":1
		},
		{
			"sampler":0,
			"source":2
		},
		{
			"sampler":0,
			"source":3
		},
		{
			"sampler":0,
			"source":4
		},
		{
			"sampler":0,
			"source":5
		},
		{
			"sampler":0,
			"source":6
		},
		{
			"sampler":0,
			"source":7
		},
		{
			"sampler":0,
			"source":8
		},
		{
			"sampler":0,
			"source":9
		},
		{
			"sampler":0,
			"source":10
		},
		{
			"sampler":0,
			"source":11
		}
	],
	"images":[
		{
			"mimeType":"image/png",
			"name":"rooftop_0002_normal_opengl_2k",
			"uri":"rooftop_0002_normal_opengl_2k.png"
		},
		{
			"mimeType":"image/png",
			"name":"rooftop_0002_color_2k",
			"uri":"rooftop_0002_color_2k.png"
		},
		{
			"mimeType":"image/png",
			"name":"rooftop_0002_roughness_2k",
			"uri":"rooftop_0002_roughness_2k.png"
		},
		{
			"mimeType":"image/png",
			"name":"Brick_MT_normal",
			"uri":"Brick_MT_normal.png"
		},
		{
			"mimeType":"image/png",
			"name":"Brick_MT_baseColor",
			"uri":"Brick_MT_baseColor.png"
		},
		{
			"mimeType":"image/png",
			"name":"Brick_MT_metallicRoughness",
			"uri":"Brick_MT_metallicRoughness.png"
		},
		{
			"mimeType":"image/png",
			"name":"wood_0048_normal_opengl_2k",
			"uri":"wood_0048_normal_opengl_2k.png"
		},
		{
			"mimeType":"image/png",
			"name":"wood_0048_color_2k",
			"uri":"wood_0048_color_2k.png"
		},
		{
			"mimeType":"image/png",
			"name":"wood_0048_roughness_2k",
			"uri":"wood_0048_roughness_2k.png"
		},
		{
			"mimeType":"image/png",
			"name":"bricks_0019_normal_opengl_2k",
			"uri":"bricks_0019_normal_opengl_2k.png"
		},
		{
			"mimeType":"image/jpeg",
			"name":"bricks_0019_color_2k",
			"uri":"bricks_0019_color_2k.jpg"
		},
		{
			"mimeType":"image/png",
			"name":"bricks_0019_roughness_2k",
			"uri":"bricks_0019_roughness_2k.png"
		}
	],
	"accessors":[
		{
			"bufferView":0,
			"componentType":5126,
			"count":7568,
			"max":[
				1.3400882482528687,
				5.29089879989624,
				1.3213056325912476
			],
			"min":[
				-1.324213981628418,
				4.340223789215088,
				-1.3240505456924438
			],
			"type":"VEC3"
		},
		{
			"bufferView":1,
			"componentType":5126,
			"count":7568,
			"type":"VEC3"
		},
		{
			"bufferView":2,
			"componentType":5126,
			"count":7568,
			"type":"VEC2"
		},
		{
			"bufferView":3,
			"componentType":5123,
			"count":17556,
			"type":"SCALAR"
		},
		{
			"bufferView":4,
			"componentType":5126,
			"count":392,
			"max":[
				0.21890175342559814,
				2.9117298126220703,
				0.8464717864990234
			],
			"min":[
				-0.21890175342559814,
				2.6928277015686035,
				0.6850836277008057
			],
			"type":"VEC3"
		},
		{
			"bufferView":5,
			"componentType":5126,
			"count":392,
			"type":"VEC3"
		},
		{
			"bufferView":6,
			"componentType":5126,
			"count":392,
			"type":"VEC2"
		},
		{
			"bufferView":7,
			"componentType":5123,
			"count":780,
			"type":"SCALAR"
		},
		{
			"bufferView":8,
			"componentType":5126,
			"count":68,
			"max":[
				1,
				0.65534508228302,
				1
			],
			"min":[
				-1,
				-1.3185205459594727,
				-1
			],
			"type":"VEC3"
		},
		{
			"bufferView":9,
			"componentType":5126,
			"count":68,
			"type":"VEC3"
		},
		{
			"bufferView":10,
			"componentType":5126,
			"count":68,
			"type":"VEC2"
		},
		{
			"bufferView":11,
			"componentType":5123,
			"count":300,
			"type":"SCALAR"
		},
		{
			"bufferView":12,
			"componentType":5126,
			"count":2628,
			"max":[
				1.163042664527893,
				3.886244297027588,
				1.1578365564346313
			],
			"min":[
				-1.1566699743270874,
				2.2233691215515137,
				-1.1578365564346313
			],
			"type":"VEC3"
		},
		{
			"bufferView":13,
			"componentType":5126,
			"count":2628,
			"type":"VEC3"
		},
		{
			"bufferView":14,
			"componentType":5126,
			"count":2628,
			"type":"VEC2"
		},
		{
			"bufferView":15,
			"componentType":5123,
			"count":4068,
			"type":"SCALAR"
		},
		{
			"bufferView":16,
			"componentType":5126,
			"count":139,
			"max":[
				0.8191869258880615,
				4.639110088348389,
				0.8191869258880615
			],
			"min":[
				-0.8191869258880615,
				0.5874811410903931,
				-0.8191869258880615
			],
			"type":"VEC3"
		},
		{
			"bufferView":17,
			"componentType":5126,
			"count":139,
			"type":"VEC3"
		},
		{
			"bufferView":18,
			"componentType":5126,
			"count":139,
			"type":"VEC2"
		},
		{
			"bufferView":19,
			"componentType":5123,
			"count":564,
			"type":"SCALAR"
		}
	],
	"bufferViews":[
		{
			"buffer":0,
			"byteLength":90816,
			"byteOffset":0,
			"target":34962
		},
		{
			"buffer":0,
			"byteLength":90816,
			"byteOffset":90816,
			"target":34962
		},
		{
			"buffer":0,
			"byteLength":60544,
			"byteOffset":181632,
			"target":34962
		},
		{
			"buffer":0,
			"byteLength":35112,
			"byteOffset":242176,
			"target":34963
		},
		{
			"buffer":0,
			"byteLength":4704,
			"byteOffset":277288,
			"target":34962
		},
		{
			"buffer":0,
			"byteLength":4704,
			"byteOffset":281992,
			"target":34962
		},
		{
			"buffer":0,
			"byteLength":3136,
			"byteOffset":286696,
			"target":34962
		},
		{
			"buffer":0,
			"byteLength":1560,
			"byteOffset":289832,
			"target":34963
		},
		{
			"buffer":0,
			"byteLength":816,
			"byteOffset":291392,
			"target":34962
		},
		{
			"buffer":0,
			"byteLength":816,
			"byteOffset":292208,
			"target":34962
		},
		{
			"buffer":0,
			"byteLength":544,
			"byteOffset":293024,
			"target":34962
		},
		{
			"buffer":0,
			"byteLength":600,
			"byteOffset":293568,
			"target":34963
		},
		{
			"buffer":0,
			"byteLength":31536,
			"byteOffset":294168,
			"target":34962
		},
		{
			"buffer":0,
			"byteLength":31536,
			"byteOffset":325704,
			"target":34962
		},
		{
			"buffer":0,
			"byteLength":21024,
			"byteOffset":357240,
			"target":34962
		},
		{
			"buffer":0,
			"byteLength":8136,
			"byteOffset":378264,
			"target":34963
		},
		{
			"buffer":0,
			"byteLength":1668,
			"byteOffset":386400,
			"target":34962
		},
		{
			"buffer":0,
			"byteLength":1668,
			"byteOffset":388068,
			"target":34962
		},
		{
			"buffer":0,
			"byteLength":1112,
			"byteOffset":389736,
			"target":34962
		},
		{
			"buffer":0,
			"byteLength":1128,
			"byteOffset":390848,
			"target":34963
		}
	],
	"samplers":[
		{
			"magFilter":9729,
			"minFilter":9987
		}
	],
	"buffers":[
		{
			"byteLength":391976,
			"uri":"tower2.bin"
		}
	]
}
